<?xml version="1.0" encoding="utf-8"?>
<!-- Generator: Adobe Illustrator 12.0.1, SVG Export Plug-In . SVG Version: 6.00 Build 51448)  -->
<!DOCTYPE svg PUBLIC "-//W3C//DTD SVG 1.1//EN" "http://www.w3.org/Graphics/SVG/1.1/DTD/svg11.dtd" [
	<!ENTITY ns_svg "http://www.w3.org/2000/svg">
	<!ENTITY ns_xlink "http://www.w3.org/1999/xlink">
]>
<svg  version="1.1" id="Layer_3" xmlns="&ns_svg;" xmlns:xlink="&ns_xlink;" width="516.294" height="555.13"
	 viewBox="0 0 516.294 555.13" overflow="visible" enable-background="new 0 0 516.294 555.13" xml:space="preserve">
<g>
	<g>
		
			<line fill="none" stroke="#000000" stroke-linecap="round" stroke-linejoin="round" x1="169.292" y1="507.629" x2="181.292" y2="489.629"/>
		
			<line fill="none" stroke="#000000" stroke-linecap="round" stroke-linejoin="round" x1="216.293" y1="554.63" x2="169.292" y2="507.629"/>
		
			<line fill="none" stroke="#000000" stroke-linecap="round" stroke-linejoin="round" x1="291.292" y1="459.128" x2="234.793" y2="510.629"/>
		
			<line fill="none" stroke="#000000" stroke-linecap="round" stroke-linejoin="round" x1="234.793" y1="510.629" x2="216.293" y2="554.63"/>
		
			<line fill="none" stroke="#000000" stroke-linecap="round" stroke-linejoin="round" x1="181.292" y1="489.629" x2="232.483" y2="428.759"/>
		
			<line fill="none" stroke="#000000" stroke-linecap="round" stroke-linejoin="round" x1="232.483" y1="428.759" x2="196.572" y2="392.85"/>
		
			<line fill="none" stroke="#000000" stroke-linecap="round" stroke-linejoin="round" x1="196.572" y1="392.85" x2="169.292" y2="354.128"/>
		
			<line fill="none" stroke="#000000" stroke-linecap="round" stroke-linejoin="round" x1="169.292" y1="354.128" x2="119.141" y2="354.128"/>
	</g>
	<g>
		
			<line fill="none" stroke="#000000" stroke-linecap="round" stroke-linejoin="round" x1="310.291" y1="329.226" x2="319.877" y2="348.617"/>
		
			<line fill="none" stroke="#000000" stroke-linecap="round" stroke-linejoin="round" x1="246.085" y1="346.432" x2="310.291" y2="329.226"/>
		
			<line fill="none" stroke="#000000" stroke-linecap="round" stroke-linejoin="round" x1="291.292" y1="459.128" x2="274.944" y2="384.45"/>
		
			<line fill="none" stroke="#000000" stroke-linecap="round" stroke-linejoin="round" x1="274.944" y1="384.45" x2="246.085" y2="346.432"/>
		
			<line fill="none" stroke="#000000" stroke-linecap="round" stroke-linejoin="round" x1="319.877" y1="348.617" x2="347" y2="423.389"/>
		
			<line fill="none" stroke="#000000" stroke-linecap="round" stroke-linejoin="round" x1="347" y1="423.389" x2="396.049" y2="410.24"/>
		
			<line fill="none" stroke="#000000" stroke-linecap="round" stroke-linejoin="round" x1="396.049" y1="410.24" x2="443.223" y2="405.975"/>
		
			<line fill="none" stroke="#000000" stroke-linecap="round" stroke-linejoin="round" x1="443.223" y1="405.975" x2="468.301" y2="362.542"/>
	</g>
	<g>
		
			<line fill="none" stroke="#000000" stroke-linecap="round" stroke-linejoin="round" x1="468.301" y1="362.542" x2="409.294" y2="334.13"/>
		
			<line fill="none" stroke="#000000" stroke-linecap="round" stroke-linejoin="round" x1="409.294" y1="334.13" x2="393.793" y2="356.129"/>
		
			<line fill="none" stroke="#000000" stroke-linecap="round" stroke-linejoin="round" x1="393.793" y1="356.129" x2="370.792" y2="358.13"/>
		
			<line fill="none" stroke="#000000" stroke-linecap="round" stroke-linejoin="round" x1="370.792" y1="358.13" x2="367.294" y2="325.13"/>
		
			<line fill="none" stroke="#000000" stroke-linecap="round" stroke-linejoin="round" x1="367.294" y1="325.13" x2="360.292" y2="301.13"/>
		
			<line fill="none" stroke="#000000" stroke-linecap="round" stroke-linejoin="round" x1="360.292" y1="301.13" x2="365.293" y2="286.628"/>
		
			<line fill="none" stroke="#000000" stroke-linecap="round" stroke-linejoin="round" x1="365.293" y1="286.628" x2="369.292" y2="279.129"/>
		
			<line fill="none" stroke="#000000" stroke-linecap="round" stroke-linejoin="round" x1="369.292" y1="279.129" x2="450.793" y2="309.128"/>
		
			<line fill="none" stroke="#000000" stroke-linecap="round" stroke-linejoin="round" x1="450.793" y1="309.128" x2="513.292" y2="261.629"/>
		
			<line fill="none" stroke="#000000" stroke-linecap="round" stroke-linejoin="round" x1="513.292" y1="261.629" x2="513.292" y2="251.129"/>
		
			<line fill="none" stroke="#000000" stroke-linecap="round" stroke-linejoin="round" x1="513.292" y1="251.129" x2="515.794" y2="233.628"/>
		
			<line fill="none" stroke="#000000" stroke-linecap="round" stroke-linejoin="round" x1="515.794" y1="233.628" x2="444.327" y2="162.162"/>
	</g>
	<g>
		
			<line fill="none" stroke="#000000" stroke-linecap="round" stroke-linejoin="round" x1="258.808" y1="82.735" x2="312.919" y2="45.837"/>
		
			<line fill="none" stroke="#000000" stroke-linecap="round" stroke-linejoin="round" x1="312.919" y1="45.837" x2="301.616" y2="21.417"/>
		
			<line fill="none" stroke="#000000" stroke-linecap="round" stroke-linejoin="round" x1="301.616" y1="21.417" x2="311.384" y2="0.5"/>
		
			<line fill="none" stroke="#000000" stroke-linecap="round" stroke-linejoin="round" x1="311.384" y1="0.5" x2="341.712" y2="13.971"/>
		
			<line fill="none" stroke="#000000" stroke-linecap="round" stroke-linejoin="round" x1="341.712" y1="13.971" x2="365.993" y2="19.903"/>
		
			<line fill="none" stroke="#000000" stroke-linecap="round" stroke-linejoin="round" x1="365.993" y1="19.903" x2="376.054" y2="31.486"/>
		
			<line fill="none" stroke="#000000" stroke-linecap="round" stroke-linejoin="round" x1="376.054" y1="31.486" x2="380.548" y2="38.696"/>
		
			<line fill="none" stroke="#000000" stroke-linecap="round" stroke-linejoin="round" x1="380.548" y1="38.696" x2="313.821" y2="94.278"/>
		
			<line fill="none" stroke="#000000" stroke-linecap="round" stroke-linejoin="round" x1="313.821" y1="94.278" x2="323.706" y2="172.152"/>
		
			<line fill="none" stroke="#000000" stroke-linecap="round" stroke-linejoin="round" x1="323.706" y1="172.152" x2="332.8" y2="177.402"/>
		
			<line fill="none" stroke="#000000" stroke-linecap="round" stroke-linejoin="round" x1="332.8" y1="177.402" x2="346.698" y2="188.321"/>
		
			<line fill="none" stroke="#000000" stroke-linecap="round" stroke-linejoin="round" x1="346.698" y1="188.321" x2="444.327" y2="162.162"/>
	</g>
	
		<line fill="none" stroke="#000000" stroke-linecap="round" stroke-linejoin="round" x1="258.808" y1="82.735" x2="269.293" y2="99.129"/>
	
		<line fill="none" stroke="#000000" stroke-linecap="round" stroke-linejoin="round" x1="269.293" y1="99.129" x2="269.293" y2="114.129"/>
	
		<line fill="none" stroke="#000000" stroke-linecap="round" stroke-linejoin="round" x1="269.293" y1="114.129" x2="276.723" y2="148.679"/>
	
		<line fill="none" stroke="#000000" stroke-linecap="round" stroke-linejoin="round" x1="276.723" y1="148.679" x2="277.61" y2="167.614"/>
	
		<line fill="none" stroke="#000000" stroke-linecap="round" stroke-linejoin="round" x1="277.61" y1="167.614" x2="228.011" y2="237.772"/>
	
		<line fill="none" stroke="#000000" stroke-linecap="round" stroke-linejoin="round" x1="228.011" y1="237.772" x2="241.793" y2="169.128"/>
	
		<line fill="none" stroke="#000000" stroke-linecap="round" stroke-linejoin="round" x1="241.793" y1="169.128" x2="215.086" y2="111.085"/>
	
		<line fill="none" stroke="#000000" stroke-linecap="round" stroke-linejoin="round" x1="215.086" y1="111.085" x2="186.293" y2="92.628"/>
	
		<line fill="none" stroke="#000000" stroke-linecap="round" stroke-linejoin="round" x1="186.293" y1="92.628" x2="126.293" y2="116.628"/>
	
		<line fill="none" stroke="#000000" stroke-linecap="round" stroke-linejoin="round" x1="126.293" y1="116.628" x2="96.293" y2="108.129"/>
	
		<line fill="none" stroke="#000000" stroke-linecap="round" stroke-linejoin="round" x1="96.293" y1="108.129" x2="53.293" y2="140.129"/>
	
		<line fill="none" stroke="#000000" stroke-linecap="round" stroke-linejoin="round" x1="53.293" y1="140.129" x2="110.873" y2="177.956"/>
	
		<line fill="none" stroke="#000000" stroke-linecap="round" stroke-linejoin="round" x1="119.372" y1="353.68" x2="99.928" y2="354.564"/>
	
		<line fill="none" stroke="#000000" stroke-linecap="round" stroke-linejoin="round" x1="99.928" y1="354.564" x2="86.94" y2="347.064"/>
	
		<line fill="none" stroke="#000000" stroke-linecap="round" stroke-linejoin="round" x1="86.94" y1="347.064" x2="53.303" y2="336.225"/>
	
		<line fill="none" stroke="#000000" stroke-linecap="round" stroke-linejoin="round" x1="53.303" y1="336.225" x2="36.463" y2="327.523"/>
	
		<line fill="none" stroke="#000000" stroke-linecap="round" stroke-linejoin="round" x1="36.463" y1="327.523" x2="0.5" y2="249.49"/>
	
		<line fill="none" stroke="#000000" stroke-linecap="round" stroke-linejoin="round" x1="0.5" y1="249.49" x2="53.057" y2="295.748"/>
	
		<line fill="none" stroke="#000000" stroke-linecap="round" stroke-linejoin="round" x1="53.057" y1="295.748" x2="116.68" y2="301.643"/>
	
		<line fill="none" stroke="#000000" stroke-linecap="round" stroke-linejoin="round" x1="116.68" y1="301.643" x2="147.058" y2="285.939"/>
	
		<line fill="none" stroke="#000000" stroke-linecap="round" stroke-linejoin="round" x1="147.058" y1="285.939" x2="156.274" y2="221.973"/>
	
		<line fill="none" stroke="#000000" stroke-linecap="round" stroke-linejoin="round" x1="156.274" y1="221.973" x2="178.637" y2="200.242"/>
	
		<line fill="none" stroke="#000000" stroke-linecap="round" stroke-linejoin="round" x1="178.637" y1="200.242" x2="172.423" y2="147"/>
	
		<line fill="none" stroke="#000000" stroke-linecap="round" stroke-linejoin="round" x1="172.423" y1="147" x2="110.873" y2="177.956"/>
	
		<line fill="none" stroke="#000000" stroke-linecap="round" stroke-linejoin="round" x1="169.292" y1="354.128" x2="189.793" y2="351.131"/>
	
		<line fill="none" stroke="#000000" stroke-linecap="round" stroke-linejoin="round" x1="189.793" y1="351.131" x2="203.792" y2="360.629"/>
	
		<line fill="none" stroke="#000000" stroke-linecap="round" stroke-linejoin="round" x1="203.792" y1="360.629" x2="213.793" y2="364.631"/>
	
		<line fill="none" stroke="#000000" stroke-linecap="round" stroke-linejoin="round" x1="246.085" y1="346.432" x2="229.793" y2="324.131"/>
	
		<line fill="none" stroke="#000000" stroke-linecap="round" stroke-linejoin="round" x1="186.292" y1="524.63" x2="197.293" y2="505.13"/>
	
		<line fill="none" stroke="#000000" stroke-linecap="round" stroke-linejoin="round" x1="204.793" y1="543.131" x2="214.793" y2="516.629"/>
	
		<line fill="none" stroke="#000000" stroke-linecap="round" stroke-linejoin="round" x1="370.792" y1="358.13" x2="364.294" y2="371.129"/>
	
		<line fill="none" stroke="#000000" stroke-linecap="round" stroke-linejoin="round" x1="364.294" y1="371.129" x2="358.294" y2="385.13"/>
	
		<line fill="none" stroke="#000000" stroke-linecap="round" stroke-linejoin="round" x1="430.851" y1="344.51" x2="421.294" y2="359.63"/>
	
		<line fill="none" stroke="#000000" stroke-linecap="round" stroke-linejoin="round" x1="421.294" y1="359.63" x2="415.045" y2="365.879"/>
	
		<line fill="none" stroke="#000000" stroke-linecap="round" stroke-linejoin="round" x1="446.366" y1="351.98" x2="436.792" y2="372.131"/>
	
		<line fill="none" stroke="#000000" stroke-linecap="round" stroke-linejoin="round" x1="360.292" y1="301.13" x2="357.292" y2="287.129"/>
	
		<line fill="none" stroke="#000000" stroke-linecap="round" stroke-linejoin="round" x1="357.292" y1="287.129" x2="350.293" y2="272.63"/>
	
		<line fill="none" stroke="#000000" stroke-linecap="round" stroke-linejoin="round" x1="310.291" y1="329.226" x2="334.792" y2="333.629"/>
	
		<line fill="none" stroke="#000000" stroke-linecap="round" stroke-linejoin="round" x1="384.793" y1="257.63" x2="401.794" y2="265.629"/>
	
		<line fill="none" stroke="#000000" stroke-linecap="round" stroke-linejoin="round" x1="401.794" y1="265.629" x2="416.794" y2="276.129"/>
	
		<line fill="none" stroke="#000000" stroke-linecap="round" stroke-linejoin="round" x1="416.794" y1="276.129" x2="449.829" y2="274.058"/>
	
		<line fill="none" stroke="#000000" stroke-linecap="round" stroke-linejoin="round" x1="449.829" y1="274.058" x2="454.792" y2="275.379"/>
	
		<line fill="none" stroke="#000000" stroke-linecap="round" stroke-linejoin="round" x1="454.792" y1="275.379" x2="471.292" y2="255.879"/>
	
		<line fill="none" stroke="#000000" stroke-linecap="round" stroke-linejoin="round" x1="471.292" y1="255.879" x2="497.542" y2="253.878"/>
	
		<line fill="none" stroke="#000000" stroke-linecap="round" stroke-linejoin="round" x1="497.542" y1="253.878" x2="502.294" y2="252.129"/>
	
		<line fill="none" stroke="#000000" stroke-linecap="round" stroke-linejoin="round" x1="446.264" y1="198.084" x2="469.294" y2="222.629"/>
	
		<line fill="none" stroke="#000000" stroke-linecap="round" stroke-linejoin="round" x1="469.294" y1="222.629" x2="478.294" y2="226.629"/>
	
		<line fill="none" stroke="#000000" stroke-linecap="round" stroke-linejoin="round" x1="478.294" y1="226.629" x2="494.044" y2="230.379"/>
	
		<line fill="none" stroke="#000000" stroke-linecap="round" stroke-linejoin="round" x1="494.044" y1="230.379" x2="499.792" y2="233.879"/>
	
		<line fill="none" stroke="#000000" stroke-linecap="round" stroke-linejoin="round" x1="446.264" y1="198.084" x2="426.043" y2="198.084"/>
	
		<line fill="none" stroke="#000000" stroke-linecap="round" stroke-linejoin="round" x1="426.043" y1="198.084" x2="415.792" y2="195.129"/>
	
		<line fill="none" stroke="#000000" stroke-linecap="round" stroke-linejoin="round" x1="415.792" y1="195.129" x2="400.294" y2="206.129"/>
	
		<line fill="none" stroke="#000000" stroke-linecap="round" stroke-linejoin="round" x1="400.294" y1="206.129" x2="390.292" y2="210.629"/>
	
		<line fill="none" stroke="#000000" stroke-linecap="round" stroke-linejoin="round" x1="390.292" y1="210.629" x2="384.916" y2="216.003"/>
	<path fill="none" stroke="#000000" stroke-linecap="round" stroke-linejoin="round" d="M418.953,196.046
		c-0.023-0.303-0.035-0.609-0.035-0.917"/>
	<path fill="none" stroke="#000000" stroke-linecap="round" stroke-linejoin="round" d="M418.918,195.129
		c0-6.902,6.1-12.5,13.626-12.5c7.523,0,13.623,5.597,13.623,12.5c0,0.863-0.097,1.705-0.278,2.52"/>
	<path d="M425.478,197.954c-0.674-1.087-1.061-2.351-1.061-3.699c0-4.074,3.524-7.375,7.875-7.375s7.875,3.302,7.875,7.375
		c0,1.408-0.422,2.723-1.151,3.842"/>
	<path fill="none" stroke="#000000" stroke-linecap="round" stroke-linejoin="round" d="M449.829,274.058
		c0.182,0.806,0.085,0.967,0.085,1.821c0,6.835-6.126,12.375-13.688,12.375c-7.556,0-13.685-5.54-13.685-12.375"/>
	<path d="M444.222,274.41c0.047,0.318,0.07,0.642,0.07,0.97c0,4.28-4.028,7.753-9,7.753s-9-3.474-9-7.753"/>
	
		<line fill="none" stroke="#000000" stroke-linecap="round" stroke-linejoin="round" x1="323.706" y1="172.152" x2="327.793" y2="190.128"/>
	
		<line fill="none" stroke="#000000" stroke-linecap="round" stroke-linejoin="round" x1="327.793" y1="190.128" x2="327.793" y2="201.629"/>
	
		<line fill="none" stroke="#000000" stroke-linecap="round" stroke-linejoin="round" x1="313.821" y1="94.278" x2="300.793" y2="91.128"/>
	
		<line fill="none" stroke="#000000" stroke-linecap="round" stroke-linejoin="round" x1="277.61" y1="167.614" x2="285.294" y2="154.629"/>
	
		<line fill="none" stroke="#000000" stroke-linecap="round" stroke-linejoin="round" x1="285.294" y1="154.629" x2="295.294" y2="140.129"/>
	
		<line fill="none" stroke="#000000" stroke-linecap="round" stroke-linejoin="round" x1="328.801" y1="8.236" x2="330.292" y2="22.629"/>
	
		<line fill="none" stroke="#000000" stroke-linecap="round" stroke-linejoin="round" x1="330.292" y1="22.629" x2="331.73" y2="34.941"/>
	
		<line fill="none" stroke="#000000" stroke-linecap="round" stroke-linejoin="round" x1="331.73" y1="34.941" x2="335.105" y2="41.129"/>
	
		<line fill="none" stroke="#000000" stroke-linecap="round" stroke-linejoin="round" x1="356.243" y1="17.521" x2="354.605" y2="27.629"/>
	
		<line fill="none" stroke="#000000" stroke-linecap="round" stroke-linejoin="round" x1="354.605" y1="27.629" x2="357.043" y2="34.004"/>
	
		<line fill="none" stroke="#000000" stroke-linecap="round" stroke-linejoin="round" x1="357.043" y1="34.004" x2="355.168" y2="40.191"/>
	
		<line fill="none" stroke="#000000" stroke-linecap="round" stroke-linejoin="round" x1="228.011" y1="237.772" x2="226.918" y2="247.941"/>
	
		<line fill="none" stroke="#000000" stroke-linecap="round" stroke-linejoin="round" x1="226.918" y1="247.941" x2="224.855" y2="256.941"/>
	
		<line fill="none" stroke="#000000" stroke-linecap="round" stroke-linejoin="round" x1="224.855" y1="256.941" x2="222.98" y2="262.004"/>
	
		<line fill="none" stroke="#000000" stroke-linecap="round" stroke-linejoin="round" x1="172.423" y1="147" x2="173.48" y2="141.254"/>
	
		<line fill="none" stroke="#000000" stroke-linecap="round" stroke-linejoin="round" x1="173.48" y1="141.254" x2="179.105" y2="137.129"/>
	
		<line fill="none" stroke="#000000" stroke-linecap="round" stroke-linejoin="round" x1="179.105" y1="137.129" x2="180.793" y2="131.316"/>
	
		<line fill="none" stroke="#000000" stroke-linecap="round" stroke-linejoin="round" x1="180.793" y1="131.316" x2="180.793" y2="127.566"/>
	
		<line fill="none" stroke="#000000" stroke-linecap="round" stroke-linejoin="round" x1="73.896" y1="153.664" x2="97.355" y2="136.191"/>
	
		<line fill="none" stroke="#000000" stroke-linecap="round" stroke-linejoin="round" x1="93.973" y1="166.854" x2="118.355" y2="149.504"/>
	
		<line fill="none" stroke="#000000" stroke-linecap="round" stroke-linejoin="round" x1="147.058" y1="285.939" x2="158.48" y2="281.691"/>
	
		<line fill="none" stroke="#000000" stroke-linecap="round" stroke-linejoin="round" x1="158.48" y1="281.691" x2="165.793" y2="270.629"/>
	
		<line fill="none" stroke="#000000" stroke-linecap="round" stroke-linejoin="round" x1="165.793" y1="270.629" x2="169.543" y2="262.379"/>
	
		<line fill="none" stroke="#000000" stroke-linecap="round" stroke-linejoin="round" x1="169.543" y1="262.379" x2="174.605" y2="257.316"/>
	
		<line fill="none" stroke="#000000" stroke-linecap="round" stroke-linejoin="round" x1="174.512" y1="257.41" x2="174.793" y2="251.129"/>
	<path fill="none" stroke="#000000" stroke-linecap="round" stroke-linejoin="round" d="M423.793,219.378
		c-25.91,23.234-74.871,9.236-106.236,17.972c-27.313,7.616-65.276,20.918-88.088,37.771c-29.446,21.754-59.396,35.421-94.68,43.132
		c-27.253,5.956-82.699-0.683-97.245-28.875"/>
	<path fill="none" stroke="#000000" stroke-linecap="round" stroke-linejoin="round" d="M38.293,290.879
		c33.749,63.489,129.729,36.914,178.696,13.198c63.27-30.645,138.067-79.198,211.556-50.949"/>
	
		<line fill="none" stroke="#000000" stroke-linecap="round" stroke-linejoin="round" x1="174.793" y1="251.129" x2="177.293" y2="245.879"/>
</g>
</svg>
