# Created by FreeCAD <http://www.freecad.org>
v 223.500000 70.000000 83.000000
v 43.500000 250.000000 80.000000
v 43.500000 250.000000 83.000000
v 223.500000 70.000000 80.000000
v 225.116470 68.383530 82.527260
v 225.202789 68.297211 82.469925
v 225.028229 68.471779 82.581573
v 224.938156 68.561852 82.632812
v 224.815414 68.684593 82.696236
v 224.673996 68.826004 82.760750
v 224.529434 68.970558 82.817848
v 224.382111 69.117882 82.867378
v 224.232422 69.267570 82.909218
v 224.080765 69.419228 82.943245
v 223.927551 69.572449 82.969376
v 223.773193 69.726807 82.987534
v 223.636734 69.863266 82.996880
v 225.287079 68.212929 82.409637
v 225.369232 68.130775 82.346481
v 225.449158 68.050850 82.280525
v 225.526749 67.973251 82.211853
v 225.601929 67.898071 82.140533
v 225.674606 67.825394 82.066666
v 225.744675 67.755318 81.990326
v 225.812088 67.687920 81.911613
v 225.876724 67.623276 81.830627
v 225.938522 67.561470 81.747452
v 225.997421 67.502579 81.662186
v 226.053345 67.446663 81.574944
v 226.106216 67.393791 81.485825
v 226.155975 67.344032 81.394928
v 226.202560 67.297440 81.302368
v 226.245926 67.254074 81.208252
v 226.286026 67.213982 81.112694
v 226.322784 67.177216 81.015816
v 226.356186 67.143814 80.917717
v 226.386169 67.113823 80.818527
v 226.412720 67.087280 80.718361
v 226.435791 67.064201 80.617340
v 226.455368 67.044632 80.515579
v 226.471405 67.028595 80.413200
v 226.483902 67.016098 80.310333
v 226.492844 67.007156 80.207092
v 226.498215 67.001793 80.103607
v 226.500000 67.000000 80.000000
v 223.500000 70.000000 -3.000000
v 43.500000 250.000000 -3.000000
v 43.500000 250.000000 0.000000
v 223.500000 70.000000 0.000000
v 223.636734 69.863266 -2.996882
v 223.773193 69.726807 -2.987535
v 223.927551 69.572449 -2.969377
v 224.080765 69.419228 -2.943248
v 224.232422 69.267570 -2.909219
v 224.382111 69.117882 -2.867380
v 226.500000 67.000000 -0.000000
v 224.529434 68.970558 -2.817846
v 226.498215 67.001793 -0.103609
v 224.673996 68.826004 -2.760747
v 226.492844 67.007156 -0.207095
v 226.483902 67.016098 -0.310334
v 224.815414 68.684593 -2.696239
v 226.471405 67.028595 -0.413202
v 224.938156 68.561852 -2.632816
v 226.455368 67.044632 -0.515578
v 225.028229 68.471779 -2.581577
v 226.435791 67.064201 -0.617338
v 225.116470 68.383530 -2.527257
v 226.412720 67.087280 -0.718362
v 225.202789 68.297211 -2.469922
v 226.386169 67.113823 -0.818529
v 225.287079 68.212929 -2.409641
v 226.356186 67.143814 -0.917719
v 225.369232 68.130775 -2.346484
v 226.322784 67.177216 -1.015814
v 225.449158 68.050850 -2.280527
v 226.286026 67.213982 -1.112697
v 225.526749 67.973251 -2.211850
v 226.245926 67.254074 -1.208252
v 225.601929 67.898071 -2.140534
v 226.202560 67.297440 -1.302366
v 225.674606 67.825394 -2.066664
v 226.155975 67.344032 -1.394926
v 225.744675 67.755318 -1.990327
v 226.106216 67.393791 -1.485822
v 225.812088 67.687920 -1.911617
v 226.053345 67.446663 -1.574945
v 225.876724 67.623276 -1.830625
v 225.997421 67.502579 -1.662189
v 225.938522 67.561470 -1.747449
v -3.000000 -3.000000 83.000000
v 223.500000 -3.000000 83.000000
v -3.000000 250.000000 83.000000
v 226.500000 -3.000000 80.000000
v 226.496384 -3.000000 80.147202
v 226.485550 -3.000000 80.294052
v 226.467529 -3.000000 80.440193
v 226.442352 -3.000000 80.585274
v 226.410095 -3.000000 80.728943
v 226.370819 -3.000000 80.870857
v 226.324631 -3.000000 81.010666
v 226.271637 -3.000000 81.148048
v 226.211975 -3.000000 81.282669
v 226.145767 -3.000000 81.414192
v 226.073181 -3.000000 81.542305
v 225.994415 -3.000000 81.666710
v 225.909622 -3.000000 81.787094
v 225.819031 -3.000000 81.903183
v 225.722855 -3.000000 82.014679
v 225.621323 -3.000000 82.121323
v 225.514679 -3.000000 82.222855
v 225.403183 -3.000000 82.319031
v 225.287094 -3.000000 82.409622
v 225.166718 -3.000000 82.494408
v 225.042313 -3.000000 82.573189
v 224.914185 -3.000000 82.645767
v 224.782669 -3.000000 82.711967
v 224.648056 -3.000000 82.771637
v 224.510666 -3.000000 82.824631
v 224.370850 -3.000000 82.870819
v 224.228943 -3.000000 82.910095
v 224.085266 -3.000000 82.942352
v 223.940186 -3.000000 82.967529
v 223.794052 -3.000000 82.985558
v 223.647202 -3.000000 82.996384
v 0.000000 250.000000 80.000000
v -3.000000 250.000000 -3.000000
v 0.000000 250.000000 0.000000
v 226.500000 -3.000000 -0.000000
v 0.000000 0.000000 80.000000
v 223.500000 0.000000 80.000000
v 226.496384 -3.000000 -0.147203
v 226.485550 -3.000000 -0.294051
v 226.467529 -3.000000 -0.440191
v 226.442352 -3.000000 -0.585271
v 226.410095 -3.000000 -0.728941
v 226.370819 -3.000000 -0.870854
v 226.324631 -3.000000 -1.010670
v 226.271637 -3.000000 -1.148050
v 226.211975 -3.000000 -1.282665
v 226.145767 -3.000000 -1.414190
v 226.073181 -3.000000 -1.542308
v 225.994415 -3.000000 -1.666711
v 225.909622 -3.000000 -1.787098
v 225.819031 -3.000000 -1.903180
v 225.722855 -3.000000 -2.014677
v 225.621323 -3.000000 -2.121320
v 225.514679 -3.000000 -2.222853
v 225.403183 -3.000000 -2.319031
v 225.287094 -3.000000 -2.409623
v 225.166718 -3.000000 -2.494409
v 225.042313 -3.000000 -2.573186
v 224.914185 -3.000000 -2.645764
v 224.782669 -3.000000 -2.711968
v 224.648056 -3.000000 -2.771639
v 224.510666 -3.000000 -2.824632
v 224.370850 -3.000000 -2.870821
v 224.228943 -3.000000 -2.910094
v 224.085266 -3.000000 -2.942356
v 223.940186 -3.000000 -2.967530
v 223.794052 -3.000000 -2.985554
v 223.647202 -3.000000 -2.996386
v 223.500000 -3.000000 -3.000000
v 223.500000 0.000000 0.000000
v -3.000000 -3.000000 -3.000000
v 0.000000 0.000000 0.000000
vn 0.707107 0.707107 0.000000
vn 0.707107 0.707107 -0.000000
vn 0.707107 0.707107 0.000000
vn 0.707129 0.707085 -0.000028
vn 0.707106 0.707107 -0.000002
vn 0.707107 0.707107 -0.000002
vn 0.707091 0.707123 0.000014
vn 0.707091 0.707123 0.000014
vn 0.707107 0.707106 0.000002
vn 0.707107 0.707107 0.000002
vn 0.707107 0.707106 0.000002
vn 0.707124 0.707090 -0.000005
vn 0.707107 0.707107 0.000000
vn 0.707107 0.707107 0.000000
vn 0.707107 0.707107 -0.000000
vn 0.707085 0.707128 0.000030
vn 0.707106 0.707107 -0.000001
vn 0.707106 0.707107 -0.000001
vn 0.707126 0.707088 -0.000035
vn 0.707107 0.707107 0.000000
vn 0.707107 0.707107 0.000000
vn 0.707125 0.707089 -0.000038
vn 0.707073 0.707141 0.000079
vn 0.707123 0.707091 -0.000041
vn 0.707123 0.707091 -0.000041
vn 0.707092 0.707121 0.000043
vn 0.707092 0.707121 0.000043
vn 0.707106 0.707108 -0.000001
vn 0.707106 0.707108 -0.000001
vn 0.707118 0.707096 -0.000047
vn 0.707107 0.707107 0.000000
vn 0.707096 0.707117 0.000048
vn 0.707116 0.707098 -0.000049
vn 0.707107 0.707107 0.000000
vn 0.707115 0.707099 -0.000050
vn 0.707101 0.707113 0.000051
vn 0.707113 0.707101 -0.000051
vn 0.707102 0.707111 0.000051
vn 0.707107 0.707107 0.000000
vn 0.707107 0.707107 0.000000
vn 0.707107 0.707107 0.000000
vn 0.707105 0.707109 0.000052
vn 0.707107 0.707107 -0.000052
vn 0.707107 0.707107 0.000000
vn 0.707107 0.707107 -0.000000
vn 0.707107 0.707107 0.000000
vn 0.707107 0.707107 0.000000
vn 0.707107 0.707107 0.000000
vn 0.707124 0.707090 0.000005
vn 0.707107 0.707107 -0.000002
vn 0.707107 0.707107 -0.000002
vn 0.707107 0.707107 -0.000000
vn 0.707107 0.707107 0.000000
vn 0.707107 0.707107 -0.000002
vn 0.707107 0.707107 0.000052
vn 0.707091 0.707123 -0.000014
vn 0.707105 0.707109 -0.000052
vn 0.707107 0.707107 0.000000
vn 0.707091 0.707123 -0.000014
vn 0.707107 0.707107 0.000000
vn 0.707106 0.707107 0.000002
vn 0.707107 0.707107 0.000000
vn 0.707106 0.707107 0.000002
vn 0.707102 0.707111 -0.000051
vn 0.707129 0.707085 0.000028
vn 0.707113 0.707101 0.000051
vn 0.707107 0.707107 0.000000
vn 0.707101 0.707113 -0.000051
vn 0.707085 0.707128 -0.000030
vn 0.707115 0.707099 0.000050
vn 0.707106 0.707107 0.000001
vn 0.707107 0.707107 0.000000
vn 0.707106 0.707107 0.000001
vn 0.707116 0.707098 0.000049
vn 0.707126 0.707088 0.000035
vn 0.707096 0.707117 -0.000048
vn 0.707107 0.707107 0.000000
vn 0.707107 0.707107 0.000000
vn 0.707107 0.707107 0.000000
vn 0.707118 0.707096 0.000047
vn 0.707125 0.707089 0.000038
vn 0.707106 0.707108 0.000001
vn 0.707073 0.707141 -0.000079
vn 0.707106 0.707108 0.000001
vn 0.707123 0.707091 0.000041
vn 0.707092 0.707121 -0.000043
vn 0.707123 0.707091 0.000041
vn 0.707092 0.707121 -0.000043
vn 0.000000 0.000000 1.000000
vn 0.000000 0.000000 1.000000
vn 0.000000 0.000000 1.000000
vn 0.999852 -0.000000 0.017229
vn 0.998656 0.000006 0.051832
vn 0.999698 -0.000011 0.024560
vn 0.996270 0.000003 0.086286
vn 0.992701 -0.000005 0.120600
vn 0.997290 -0.000013 0.073574
vn 0.987953 0.000005 0.154756
vn 0.992483 -0.000008 0.122383
vn 0.981993 0.000005 0.188917
vn 0.985274 -0.000013 0.170983
vn 0.974899 -0.000003 0.222649
vn 0.966620 0.000002 0.256214
vn 0.975709 -0.000009 0.219070
vn 0.963771 -0.000012 0.266732
vn 0.957223 0.000006 0.289352
vn 0.946632 0.000001 0.322317
vn 0.934960 -0.000001 0.354752
vn 0.949525 -0.000011 0.313693
vn 0.922101 0.000006 0.386949
vn 0.932994 -0.000010 0.359892
vn 0.908227 0.000004 0.418478
vn 0.914238 -0.000013 0.405177
vn 0.893245 -0.000007 0.449571
vn 0.877170 0.000004 0.480181
vn 0.893211 -0.000006 0.449637
vn 0.860037 0.000006 0.510232
vn 0.870055 -0.000013 0.492955
vn 0.841883 -0.000001 0.539660
vn 0.822786 0.000001 0.568352
vn 0.844893 -0.000010 0.534936
vn 0.802698 0.000006 0.596386
vn 0.817556 -0.000011 0.575849
vn 0.781588 0.000002 0.623796
vn 0.759515 -0.000003 0.650490
vn 0.788364 -0.000012 0.615210
vn 0.736723 0.000006 0.676195
vn 0.757212 -0.000009 0.653169
vn 0.712829 0.000005 0.701338
vn 0.724251 -0.000013 0.689536
vn 0.688232 -0.000005 0.725491
vn 0.662760 0.000003 0.748832
vn 0.689536 -0.000008 0.724251
vn 0.636487 0.000006 0.771287
vn 0.653169 -0.000012 0.757212
vn 0.609476 -0.000000 0.792805
vn 0.581753 -0.000000 0.813365
vn 0.615210 -0.000011 0.788364
vn 0.553293 0.000006 0.832986
vn 0.575839 -0.000011 0.817563
vn 0.524178 0.000003 0.851609
vn 0.494454 -0.000005 0.869204
vn 0.535010 -0.000012 0.844846
vn 0.459063 0.000007 0.888403
vn 0.492871 -0.000008 0.870102
vn 0.415053 0.000010 0.909797
vn 0.449616 -0.000009 0.893222
vn 0.367366 0.000008 0.930076
vn 0.405239 -0.000008 0.914211
vn 0.318677 0.000006 0.947863
vn 0.359875 -0.000006 0.933001
vn 0.313677 -0.000004 0.949530
vn 0.269197 0.000004 0.963085
vn 0.266746 -0.000001 0.963767
vn 0.219058 0.000001 0.975712
vn 0.218927 0.000002 0.975741
vn 0.170983 -0.000002 0.985274
vn 0.168127 0.000004 0.985765
vn 0.122440 -0.000004 0.992476
vn 0.116836 0.000007 0.993151
vn 0.073522 -0.000006 0.997294
vn 0.068332 0.000003 0.997663
vn 0.024560 -0.000003 0.999698
vn 0.022815 -0.000000 0.999740
vn 0.000000 1.000000 0.000000
vn 0.000000 1.000000 -0.000000
vn 0.000000 1.000000 0.000000
vn 0.000000 1.000000 0.000000
vn 0.000000 1.000000 -0.000000
vn 0.000000 1.000000 0.000000
vn 1.000000 0.000000 -0.000000
vn 1.000000 0.000000 0.000000
vn 0.000000 0.000000 -1.000000
vn 0.000000 0.000000 -1.000000
vn 0.000000 0.000000 -1.000000
vn 0.999852 0.000000 -0.017228
vn 0.998656 0.000006 -0.051832
vn 0.999698 -0.000011 -0.024560
vn 0.996270 0.000003 -0.086288
vn 0.992701 -0.000005 -0.120599
vn 0.997290 -0.000013 -0.073575
vn 0.987952 0.000005 -0.154761
vn 0.992483 -0.000008 -0.122384
vn 0.981993 0.000005 -0.188918
vn 0.985274 -0.000013 -0.170984
vn 0.974900 -0.000003 -0.222643
vn 0.966620 0.000002 -0.256213
vn 0.975709 -0.000009 -0.219069
vn 0.963770 -0.000012 -0.266734
vn 0.957223 0.000006 -0.289351
vn 0.946628 0.000001 -0.322327
vn 0.934966 -0.000001 -0.354736
vn 0.949529 -0.000011 -0.313679
vn 0.922097 0.000006 -0.386958
vn 0.932992 -0.000010 -0.359896
vn 0.908223 0.000004 -0.418486
vn 0.914232 -0.000013 -0.405191
vn 0.893245 -0.000007 -0.449570
vn 0.877168 0.000004 -0.480184
vn 0.893214 -0.000006 -0.449632
vn 0.860047 0.000006 -0.510215
vn 0.870063 -0.000013 -0.492940
vn 0.841888 -0.000001 -0.539652
vn 0.822769 0.000001 -0.568376
vn 0.844888 -0.000010 -0.534944
vn 0.802698 0.000006 -0.596386
vn 0.817563 -0.000011 -0.575839
vn 0.781609 0.000002 -0.623769
vn 0.759508 -0.000003 -0.650498
vn 0.788346 -0.000012 -0.615232
vn 0.736707 0.000006 -0.676212
vn 0.757215 -0.000009 -0.653166
vn 0.712840 0.000005 -0.701327
vn 0.724250 -0.000013 -0.689537
vn 0.688215 -0.000005 -0.725507
vn 0.662788 0.000003 -0.748807
vn 0.689540 -0.000008 -0.724247
vn 0.636489 0.000006 -0.771286
vn 0.653177 -0.000012 -0.757206
vn 0.609480 -0.000000 -0.792801
vn 0.581717 -0.000000 -0.813391
vn 0.615209 -0.000011 -0.788364
vn 0.553292 0.000006 -0.832987
vn 0.575842 -0.000011 -0.817561
vn 0.524220 0.000003 -0.851583
vn 0.494455 -0.000005 -0.869203
vn 0.534990 -0.000012 -0.844858
vn 0.459061 0.000007 -0.888405
vn 0.492869 -0.000008 -0.870104
vn 0.415024 0.000010 -0.909810
vn 0.449637 -0.000009 -0.893211
vn 0.367366 0.000008 -0.930076
vn 0.405246 -0.000008 -0.914208
vn 0.318704 0.000006 -0.947854
vn 0.359873 -0.000006 -0.933001
vn 0.313680 -0.000004 -0.949529
vn 0.269188 0.000004 -0.963088
vn 0.266725 -0.000001 -0.963773
vn 0.219091 0.000001 -0.975704
vn 0.218940 0.000002 -0.975738
vn 0.170961 -0.000002 -0.985278
vn 0.168117 0.000004 -0.985767
vn 0.122416 -0.000004 -0.992479
vn 0.116839 0.000006 -0.993151
vn 0.073563 -0.000006 -0.997291
vn 0.068339 0.000003 -0.997662
vn 0.024542 -0.000003 -0.999699
vn 0.022796 0.000000 -0.999740
vn -1.000000 0.000000 0.000000
vn -1.000000 -0.000000 0.000000
vn 0.000000 0.000000 -1.000000
vn 0.000000 0.000000 -1.000000
vn 0.000000 0.000000 -1.000000
vn 0.000000 0.000000 1.000000
vn 0.000000 0.000000 1.000000
vn 0.000000 0.000000 1.000000
vn 0.000000 -1.000000 0.000000
vn 0.000000 -1.000000 0.000000
vn 0.000000 -1.000000 0.000000
vn 0.000000 -1.000000 0.000000
vn 0.000000 -1.000000 0.000000
vn 0.000000 -1.000000 0.000000
vn 0.000000 -1.000000 0.000000
vn 0.000000 -1.000000 0.000000
vn 0.000000 -1.000000 0.000000
vn 0.000000 -1.000000 0.000000
vn 0.000000 -1.000000 0.000000
vn 0.000000 -1.000000 0.000000
vn 0.000000 -1.000000 0.000000
vn 0.000000 -1.000000 0.000000
vn 0.000000 -1.000000 0.000000
vn 0.000000 -1.000000 0.000000
vn 0.000000 -1.000000 0.000000
vn 0.000000 -1.000000 0.000000
vn 0.000000 -1.000000 0.000000
vn 0.000000 -1.000000 0.000000
vn 0.000000 -1.000000 0.000000
vn 0.000000 -1.000000 0.000000
vn 0.000000 -1.000000 0.000000
vn 0.000000 -1.000000 0.000000
vn 0.000000 -1.000000 0.000000
vn 0.000000 -1.000000 0.000000
vn 0.000000 -1.000000 0.000000
vn 0.000000 -1.000000 0.000000
vn 0.000000 -1.000000 0.000000
vn 0.000000 -1.000000 0.000000
vn 0.000000 -1.000000 0.000000
vn 0.000000 -1.000000 0.000000
vn 0.000000 -1.000000 0.000000
vn 0.000000 -1.000000 0.000000
vn 0.000000 -1.000000 0.000000
vn 0.000000 -1.000000 0.000000
vn 0.000000 -1.000000 0.000000
vn 0.000000 -1.000000 0.000000
vn 0.000000 -1.000000 0.000000
vn 0.000000 -1.000000 0.000000
vn 0.000000 -1.000000 0.000000
vn 0.000000 -1.000000 0.000000
vn 0.000000 -1.000000 0.000000
vn 0.000000 -1.000000 0.000000
vn 0.000000 -1.000000 0.000000
vn 0.000000 -1.000000 0.000000
vn 0.000000 -1.000000 0.000000
vn 0.000000 -1.000000 0.000000
vn 0.000000 -1.000000 0.000000
vn 0.000000 -1.000000 0.000000
vn 0.000000 -1.000000 0.000000
vn 0.000000 -1.000000 0.000000
vn 0.000000 -1.000000 0.000000
vn 0.000000 -1.000000 0.000000
vn 0.000000 -1.000000 0.000000
vn 0.000000 -1.000000 0.000000
vn 0.000000 -1.000000 0.000000
vn 0.000000 -1.000000 0.000000
vn 0.000000 -1.000000 0.000000
vn 0.000000 -1.000000 0.000000
vn 0.000000 -1.000000 0.000000
vn 0.000000 -1.000000 0.000000
vn 0.000000 -1.000000 0.000000
vn 0.000000 -1.000000 0.000000
vn 0.000000 -1.000000 0.000000
vn 0.000000 -1.000000 0.000000
vn -1.000000 0.000000 0.000000
vn -1.000000 0.000000 0.000000
vn 1.000000 0.000000 0.000000
vn 1.000000 -0.000000 0.000000
vn 0.000000 1.000000 -0.000000
vn 0.000000 1.000000 0.000000
f 1//1 2//1 3//1
f 4//2 2//2 1//2
f 4//3 5//3 6//3
f 4//4 7//4 5//4
f 4//5 8//5 7//5
f 4//6 9//6 8//6
f 4//7 10//7 9//7
f 4//8 11//8 10//8
f 4//9 12//9 11//9
f 4//10 13//10 12//10
f 4//11 14//11 13//11
f 4//12 15//12 14//12
f 4//13 16//13 15//13
f 4//14 17//14 16//14
f 4//15 1//15 17//15
f 18//16 4//16 6//16
f 19//17 4//17 18//17
f 20//18 4//18 19//18
f 21//19 4//19 20//19
f 22//20 4//20 21//20
f 23//21 4//21 22//21
f 24//22 4//22 23//22
f 25//23 4//23 24//23
f 26//24 4//24 25//24
f 27//25 4//25 26//25
f 28//26 4//26 27//26
f 29//27 4//27 28//27
f 30//28 4//28 29//28
f 31//29 4//29 30//29
f 32//30 4//30 31//30
f 33//31 4//31 32//31
f 34//32 4//32 33//32
f 35//33 4//33 34//33
f 36//34 4//34 35//34
f 37//35 4//35 36//35
f 38//36 4//36 37//36
f 39//37 4//37 38//37
f 40//38 4//38 39//38
f 41//39 4//39 40//39
f 42//40 4//40 41//40
f 43//41 4//41 42//41
f 44//42 4//42 43//42
f 45//43 4//43 44//43
f 46//44 47//44 48//44
f 46//45 48//45 49//45
f 50//46 46//46 49//46
f 51//47 50//47 49//47
f 52//48 51//48 49//48
f 53//49 52//49 49//49
f 54//50 53//50 49//50
f 55//51 54//51 49//51
f 56//52 4//52 45//52
f 56//53 49//53 4//53
f 57//54 55//54 49//54
f 58//55 49//55 56//55
f 59//56 57//56 49//56
f 60//57 49//57 58//57
f 61//58 49//58 60//58
f 62//59 59//59 49//59
f 63//60 49//60 61//60
f 64//61 62//61 49//61
f 65//62 49//62 63//62
f 66//63 64//63 49//63
f 67//64 49//64 65//64
f 68//65 66//65 49//65
f 69//66 49//66 67//66
f 70//67 68//67 49//67
f 71//68 49//68 69//68
f 72//69 70//69 49//69
f 73//70 49//70 71//70
f 74//71 72//71 49//71
f 75//72 49//72 73//72
f 76//73 74//73 49//73
f 77//74 49//74 75//74
f 78//75 76//75 49//75
f 79//76 49//76 77//76
f 80//77 78//77 49//77
f 81//78 49//78 79//78
f 82//79 80//79 49//79
f 83//80 49//80 81//80
f 84//81 82//81 49//81
f 85//82 49//82 83//82
f 86//83 84//83 49//83
f 87//84 49//84 85//84
f 88//85 86//85 49//85
f 89//86 49//86 87//86
f 90//87 88//87 49//87
f 90//88 49//88 89//88
f 1//89 91//89 92//89
f 3//90 93//90 91//90
f 3//91 91//91 1//91
f 94//92 45//92 44//92
f 95//93 44//93 43//93
f 95//94 94//94 44//94
f 96//95 43//95 42//95
f 96//96 42//96 41//96
f 96//97 95//97 43//97
f 97//98 41//98 40//98
f 97//99 96//99 41//99
f 98//100 40//100 39//100
f 98//101 97//101 40//101
f 99//102 39//102 38//102
f 99//103 38//103 37//103
f 99//104 98//104 39//104
f 100//105 99//105 37//105
f 100//106 37//106 36//106
f 101//107 36//107 35//107
f 101//108 35//108 34//108
f 101//109 100//109 36//109
f 102//110 34//110 33//110
f 102//111 101//111 34//111
f 103//112 33//112 32//112
f 103//113 102//113 33//113
f 104//114 32//114 31//114
f 104//115 31//115 30//115
f 104//116 103//116 32//116
f 105//117 30//117 29//117
f 105//118 104//118 30//118
f 106//119 29//119 28//119
f 106//120 28//120 27//120
f 106//121 105//121 29//121
f 107//122 27//122 26//122
f 107//123 106//123 27//123
f 108//124 26//124 25//124
f 108//125 25//125 24//125
f 108//126 107//126 26//126
f 109//127 24//127 23//127
f 109//128 108//128 24//128
f 110//129 23//129 22//129
f 110//130 109//130 23//130
f 111//131 22//131 21//131
f 111//132 21//132 20//132
f 111//133 110//133 22//133
f 112//134 20//134 19//134
f 112//135 111//135 20//135
f 113//136 19//136 18//136
f 113//137 18//137 6//137
f 113//138 112//138 19//138
f 114//139 6//139 5//139
f 114//140 113//140 6//140
f 115//141 5//141 7//141
f 115//142 7//142 8//142
f 115//143 114//143 5//143
f 116//144 8//144 9//144
f 116//145 115//145 8//145
f 117//146 9//146 10//146
f 117//147 116//147 9//147
f 118//148 10//148 11//148
f 118//149 117//149 10//149
f 119//150 11//150 12//150
f 119//151 118//151 11//151
f 120//152 119//152 12//152
f 120//153 12//153 13//153
f 121//154 120//154 13//154
f 122//155 121//155 13//155
f 122//156 13//156 14//156
f 123//157 122//157 14//157
f 123//158 14//158 15//158
f 124//159 123//159 15//159
f 124//160 15//160 16//160
f 125//161 124//161 16//161
f 125//162 16//162 17//162
f 92//163 125//163 17//163
f 92//164 17//164 1//164
f 3//165 126//165 93//165
f 2//166 126//166 3//166
f 127//167 126//167 128//167
f 127//168 93//168 126//168
f 47//169 128//169 48//169
f 47//170 127//170 128//170
f 56//171 45//171 94//171
f 129//172 56//172 94//172
f 130//173 4//173 131//173
f 126//174 2//174 130//174
f 130//175 2//175 4//175
f 56//176 129//176 58//176
f 58//177 132//177 60//177
f 129//178 132//178 58//178
f 60//179 133//179 61//179
f 61//180 133//180 63//180
f 132//181 133//181 60//181
f 63//182 134//182 65//182
f 133//183 134//183 63//183
f 65//184 135//184 67//184
f 134//185 135//185 65//185
f 67//186 136//186 69//186
f 69//187 136//187 71//187
f 135//188 136//188 67//188
f 136//189 137//189 71//189
f 71//190 137//190 73//190
f 73//191 138//191 75//191
f 75//192 138//192 77//192
f 137//193 138//193 73//193
f 77//194 139//194 79//194
f 138//195 139//195 77//195
f 79//196 140//196 81//196
f 139//197 140//197 79//197
f 81//198 141//198 83//198
f 83//199 141//199 85//199
f 140//200 141//200 81//200
f 85//201 142//201 87//201
f 141//202 142//202 85//202
f 87//203 143//203 89//203
f 89//204 143//204 90//204
f 142//205 143//205 87//205
f 90//206 144//206 88//206
f 143//207 144//207 90//207
f 88//208 145//208 86//208
f 86//209 145//209 84//209
f 144//210 145//210 88//210
f 84//211 146//211 82//211
f 145//212 146//212 84//212
f 82//213 147//213 80//213
f 146//214 147//214 82//214
f 80//215 148//215 78//215
f 78//216 148//216 76//216
f 147//217 148//217 80//217
f 76//218 149//218 74//218
f 148//219 149//219 76//219
f 74//220 150//220 72//220
f 72//221 150//221 70//221
f 149//222 150//222 74//222
f 70//223 151//223 68//223
f 150//224 151//224 70//224
f 68//225 152//225 66//225
f 66//226 152//226 64//226
f 151//227 152//227 68//227
f 64//228 153//228 62//228
f 152//229 153//229 64//229
f 62//230 154//230 59//230
f 153//231 154//231 62//231
f 59//232 155//232 57//232
f 154//233 155//233 59//233
f 57//234 156//234 55//234
f 155//235 156//235 57//235
f 156//236 157//236 55//236
f 55//237 157//237 54//237
f 157//238 158//238 54//238
f 158//239 159//239 54//239
f 54//240 159//240 53//240
f 159//241 160//241 53//241
f 53//242 160//242 52//242
f 160//243 161//243 52//243
f 52//244 161//244 51//244
f 161//245 162//245 51//245
f 51//246 162//246 50//246
f 162//247 163//247 50//247
f 50//248 163//248 46//248
f 49//249 164//249 4//249
f 4//250 164//250 131//250
f 165//251 46//251 163//251
f 127//252 47//252 165//252
f 165//253 47//253 46//253
f 49//254 166//254 164//254
f 48//255 128//255 166//255
f 48//256 166//256 49//256
f 108//257 109//257 110//257
f 108//258 110//258 111//258
f 112//259 108//259 111//259
f 107//260 108//260 112//260
f 105//261 106//261 107//261
f 115//262 113//262 114//262
f 117//263 112//263 113//263
f 117//264 115//264 116//264
f 117//265 113//265 115//265
f 103//266 104//266 105//266
f 103//267 107//267 112//267
f 103//268 105//268 107//268
f 100//269 101//269 102//269
f 98//270 99//270 100//270
f 98//271 102//271 103//271
f 98//272 100//272 102//272
f 123//273 117//273 118//273
f 123//274 118//274 119//274
f 123//275 119//275 120//275
f 123//276 120//276 121//276
f 123//277 121//277 122//277
f 96//278 97//278 98//278
f 125//279 123//279 124//279
f 94//280 103//280 112//280
f 94//281 117//281 123//281
f 94//282 96//282 98//282
f 94//283 98//283 103//283
f 94//284 95//284 96//284
f 94//285 112//285 117//285
f 92//286 94//286 123//286
f 92//287 123//287 125//287
f 129//288 94//288 92//288
f 134//289 132//289 129//289
f 134//290 133//290 132//290
f 135//291 134//291 129//291
f 138//292 136//292 135//292
f 138//293 137//293 136//293
f 138//294 135//294 129//294
f 140//295 139//295 138//295
f 141//296 140//296 138//296
f 143//297 142//297 141//297
f 143//298 141//298 138//298
f 143//299 138//299 129//299
f 144//300 143//300 129//300
f 145//301 144//301 129//301
f 146//302 145//302 129//302
f 147//303 146//303 129//303
f 148//304 147//304 129//304
f 149//305 148//305 129//305
f 151//306 150//306 149//306
f 151//307 149//307 129//307
f 153//308 152//308 151//308
f 154//309 153//309 151//309
f 156//310 155//310 154//310
f 156//311 154//311 151//311
f 157//312 156//312 151//312
f 158//313 151//313 129//313
f 158//314 157//314 151//314
f 160//315 159//315 158//315
f 162//316 161//316 160//316
f 162//317 158//317 129//317
f 162//318 160//318 158//318
f 163//319 129//319 92//319
f 163//320 162//320 129//320
f 165//321 92//321 91//321
f 165//322 163//322 92//322
f 127//323 165//323 91//323
f 127//324 91//324 93//324
f 166//325 128//325 130//325
f 130//326 128//326 126//326
f 164//327 166//327 131//327
f 131//328 166//328 130//328
